HIERARCHY
ROOT Hips
{
	OFFSET 0.000000 0.000000 0.000000
	CHANNELS 6 Xposition Yposition Zposition Xrotation Yrotation Zrotation
	JOINT LeftUpLeg_virtual
	{
		OFFSET 0.000000 0.000000 0.000000
		CHANNELS 3 Xrotation Yrotation Zrotation
		JOINT LeftUpLeg
		{
			OFFSET 15.427100 -6.655098 0.678600
			CHANNELS 3 Xrotation Yrotation Zrotation
			JOINT LeftLeg
			{
				OFFSET 4.081073 -39.591068 13.024000
				CHANNELS 3 Xrotation Yrotation Zrotation
				JOINT LeftFoot
				{
					OFFSET -4.081074 -37.707932 -15.979700
					CHANNELS 3 Xrotation Yrotation Zrotation
					JOINT LeftToeBase
					{
						OFFSET 5.346399 -15.068900 20.645000
						CHANNELS 3 Xrotation Yrotation Zrotation
						JOINT LeftToe_End
						{
							OFFSET 2.754700 0.931300 11.300900
							CHANNELS 3 Xrotation Yrotation Zrotation
							End Site
							{
								OFFSET 0 0 0
							}
						}
					}
				}
			}
		}
	}
	JOINT RightUpLeg_virtual
	{
		OFFSET 0.000000 0.000000 0.000000
		CHANNELS 3 Xrotation Yrotation Zrotation
		JOINT RightUpLeg
		{
			OFFSET -15.569500 -6.655098 0.678600
			CHANNELS 3 Xrotation Yrotation Zrotation
			JOINT RightLeg
			{
				OFFSET -4.081825 -39.591045 13.023800
				CHANNELS 3 Xrotation Yrotation Zrotation
				JOINT RightFoot
				{
					OFFSET 4.081824 -37.707954 -15.979600
					CHANNELS 3 Xrotation Yrotation Zrotation
					JOINT RightToeBase
					{
						OFFSET -5.346400 -15.068900 20.645000
						CHANNELS 3 Xrotation Yrotation Zrotation
						JOINT RightToe_End
						{
							OFFSET -2.754700 0.931300 11.300900
							CHANNELS 3 Xrotation Yrotation Zrotation
							End Site
							{
								OFFSET 0 0 0
							}
						}
					}
				}
			}
		}
	}
	JOINT Spine_virtual
	{
		OFFSET 0.000000 0.000000 0.000000
		CHANNELS 3 Xrotation Yrotation Zrotation
		JOINT Spine
		{
			OFFSET -0.279200 12.230698 -2.892100
			CHANNELS 3 Xrotation Yrotation Zrotation
			JOINT Spine1
			{
				OFFSET -0.232667 10.192268 -1.242267
				CHANNELS 3 Xrotation Yrotation Zrotation
				JOINT Spine1_split
				{
					OFFSET -0.232667 10.192268 -1.242267
					CHANNELS 3 Xrotation Yrotation Zrotation
					JOINT Spine2
					{
						OFFSET -0.232667 10.192268 -1.242267
						CHANNELS 3 Xrotation Yrotation Zrotation
						JOINT Neck_virtual
						{
							OFFSET 0.000000 0.000000 0.000000
							CHANNELS 3 Xrotation Yrotation Zrotation
							JOINT Neck
							{
								OFFSET -0.418800 17.814194 8.416900
								CHANNELS 3 Xrotation Yrotation Zrotation
								JOINT Head
								{
									OFFSET 0.000000 7.031097 3.806800
									CHANNELS 3 Xrotation Yrotation Zrotation
									JOINT HeadTop_End
									{
										OFFSET 0.000000 24.646606 12.978600
										CHANNELS 3 Xrotation Yrotation Zrotation
										End Site
										{
											OFFSET 0 0 0
										}
									}
								}
							}
						}
						JOINT LeftShoulder_virtual
						{
							OFFSET 0.000000 0.000000 0.000000
							CHANNELS 3 Xrotation Yrotation Zrotation
							JOINT LeftShoulder
							{
								OFFSET 8.476499 7.247704 -3.868750
								CHANNELS 3 Xrotation Yrotation Zrotation
								JOINT LeftShoulder_split
								{
									OFFSET 8.476499 7.247704 -3.868750
									CHANNELS 3 Xrotation Yrotation Zrotation
									JOINT LeftArm
									{
										OFFSET 9.308998 -2.777710 0.208600
										CHANNELS 3 Xrotation Yrotation Zrotation
										JOINT LeftForeArm
										{
											OFFSET 29.972298 0.000000 0.000000
											CHANNELS 3 Xrotation Yrotation Zrotation
											JOINT LeftHand
											{
												OFFSET 26.026505 0.000000 0.000000
												CHANNELS 3 Xrotation Yrotation Zrotation
												End Site
												{
													OFFSET 0 0 0
												}
											}
										}
									}
								}
							}
						}
						JOINT RightShoulder_virtual
						{
							OFFSET 0.000000 0.000000 0.000000
							CHANNELS 3 Xrotation Yrotation Zrotation
							JOINT RightShoulder
							{
								OFFSET -7.570500 7.247704 -3.868750
								CHANNELS 3 Xrotation Yrotation Zrotation
								JOINT RightShoulder_split
								{
									OFFSET -7.570500 7.247704 -3.868750
									CHANNELS 3 Xrotation Yrotation Zrotation
									JOINT RightArm
									{
										OFFSET -9.308998 -2.777710 0.208500
										CHANNELS 3 Xrotation Yrotation Zrotation
										JOINT RightForeArm
										{
											OFFSET -29.972300 0.000000 0.000000
											CHANNELS 3 Xrotation Yrotation Zrotation
											JOINT RightHand
											{
												OFFSET -26.026505 0.000000 0.000000
												CHANNELS 3 Xrotation Yrotation Zrotation
												End Site
												{
													OFFSET 0 0 0
												}
											}
										}
									}
								}
							}
						}
					}
				}
			}
		}
	}
}
MOTION
Frames: 11
Frame Time: 0.03333333
-143.518860 30.296501 14.229485 0.000000 0.000000 0.000000 5.120094 2.586919 -40.501338 -121.868306 -4.523169 6.198137 22.144431 0.135663 3.824100 42.433527 -11.635486 37.602790 -8.731672 0.000040 0.000004 0.000000 0.000000 0.000000 5.120094 2.586919 -40.501338 -86.093770 -22.333474 -23.829955 117.639504 9.120837 -1.226657 -8.244881 28.468445 5.433227 -39.838772 -0.000014 -0.000001 0.000000 0.000000 0.000000 5.120094 2.586919 -40.501338 26.351884 -4.879553 -14.026307 4.544296 1.067061 -3.000538 0.000000 0.000000 0.000000 0.000000 0.000000 0.000000 4.469507 1.152595 -3.102254 -2.049336 1.250604 0.923230 -3.430783 19.437303 0.140223 0.000000 0.000000 0.000000 4.469507 1.152595 -3.102254 -0.738570 -20.006915 -16.433097 0.000000 0.000000 0.000000 -50.129251 35.122253 -5.603043 0.000033 -67.864275 0.000043 0.000000 0.000000 0.000000 4.469507 1.152595 -3.102254 0.572093 17.177629 -1.647709 0.000000 0.000000 0.000000 -40.220692 -36.620551 -13.906584 0.000003 47.792835 -0.000006 0.000000 0.000000 0.000000 
-141.747253 33.060226 12.792404 0.000000 0.000000 0.000000 6.605876 1.927595 -42.556084 -125.503497 -4.520187 5.072715 32.467690 3.731655 3.130898 36.226999 -12.284969 41.918640 -9.566004 -0.000009 -0.000009 0.000000 0.000000 0.000000 6.605876 1.927595 -42.556084 -80.713069 -24.697544 -20.313771 111.634306 9.925552 -0.528246 -12.246860 28.820222 7.775703 -37.575490 0.000012 -0.000002 0.000000 0.000000 0.000000 6.605876 1.927595 -42.556084 25.306180 -6.190450 -14.354776 4.429974 0.562697 -3.087449 0.000000 0.000000 0.000000 0.000000 0.000000 0.000000 4.399094 0.647813 -3.172078 -1.978529 1.469750 0.973268 -2.886838 20.911702 0.815777 0.000000 0.000000 0.000000 4.399094 0.647813 -3.172078 0.465879 -18.467179 -14.809585 0.000000 0.000000 0.000000 -53.117326 32.371029 -6.476308 -0.000006 -65.498229 -0.000005 0.000000 0.000000 0.000000 4.399094 0.647813 -3.172078 0.420650 16.309587 -2.316457 0.000000 0.000000 0.000000 -40.918557 -42.271143 -17.103706 -0.000004 49.709816 0.000014 0.000000 0.000000 0.000000 
-139.843628 36.154625 11.985149 0.000000 0.000000 0.000000 8.495427 0.754003 -45.947465 -134.130012 -5.631002 4.508487 53.353227 10.633481 1.579225 27.729509 -12.646170 44.358086 -11.086848 -0.000017 0.000003 0.000000 0.000000 0.000000 8.495427 0.754003 -45.947465 -74.987274 -27.190317 -16.066377 104.258610 11.154587 0.723700 -14.457941 27.833574 10.355287 -35.945503 -0.000002 0.000001 0.000000 0.000000 0.000000 8.495427 0.754003 -45.947465 24.769430 -7.364963 -13.804869 4.340295 -0.053011 -2.926345 0.000000 0.000000 0.000000 0.000000 0.000000 0.000000 4.326358 0.001582 -3.071860 -1.907610 1.651350 1.046733 -3.037820 21.624693 2.047976 0.000000 0.000000 0.000000 4.326358 0.001582 -3.071860 1.528346 -17.124220 -13.055615 0.000000 0.000000 0.000000 -56.910953 30.147673 -5.988684 0.000010 -62.567320 0.000024 0.000000 0.000000 0.000000 4.326358 0.001582 -3.071860 -0.280801 13.602716 -1.925094 0.000000 0.000000 0.000000 -41.602324 -46.076548 -18.868457 -0.000007 51.752135 0.000002 0.000000 0.000000 0.000000 
-138.396927 39.318546 10.218925 0.000000 0.000000 0.000000 10.833671 -0.392503 -49.775789 -140.853951 -7.279080 5.572172 74.031321 15.518869 -0.734926 20.392443 -10.363837 37.697245 -15.404810 0.000006 0.000011 0.000000 0.000000 0.000000 10.833671 -0.392503 -49.775789 -73.078175 -30.960715 -11.803654 97.176796 10.178310 0.768992 -13.046186 26.562636 12.636614 -35.515642 -0.000004 0.000002 0.000000 0.000000 0.000000 10.833671 -0.392503 -49.775789 24.537193 -8.750781 -12.593621 4.268278 -0.667218 -2.683780 0.000000 0.000000 0.000000 0.000000 0.000000 0.000000 4.264228 -0.670720 -2.969956 -1.865147 1.816229 1.098597 -3.836376 21.972999 3.501159 0.000000 0.000000 0.000000 4.264228 -0.670720 -2.969956 2.392739 -16.120992 -11.191420 0.000000 0.000000 0.000000 -60.835067 28.365554 -4.762337 0.000007 -59.974306 0.000019 0.000000 0.000000 0.000000 4.264228 -0.670720 -2.969956 -0.885404 10.812399 -1.433158 0.000000 0.000000 0.000000 -42.789622 -50.514385 -20.264734 -0.000015 53.767959 0.000022 0.000000 0.000000 0.000000 
-137.395493 42.887741 7.449059 0.000000 0.000000 0.000000 13.907705 -1.250806 -53.822895 -138.573391 -9.138168 7.723107 92.094965 15.572795 -3.365073 5.444605 -7.501092 27.766997 -20.869950 -0.000001 0.000003 0.000000 0.000000 0.000000 13.907705 -1.250806 -53.822895 -75.511245 -33.546467 -9.413670 89.684106 8.384511 2.302684 -5.407548 26.610859 13.351157 -32.639613 0.000005 -0.000010 0.000000 0.000000 0.000000 13.907705 -1.250806 -53.822895 24.549078 -10.522557 -10.861122 4.205508 -1.261792 -2.434703 0.000000 0.000000 0.000000 0.000000 0.000000 0.000000 4.214187 -1.329381 -2.877537 -1.858506 1.982570 1.100688 -5.029977 22.157549 5.060402 0.000000 0.000000 0.000000 4.214187 -1.329381 -2.877537 3.029248 -15.594217 -9.234377 0.000000 0.000000 0.000000 -64.766839 26.176114 -2.837072 0.000019 -57.078166 0.000023 0.000000 0.000000 0.000000 4.214187 -1.329381 -2.877537 -1.325206 7.928362 -1.159174 0.000000 0.000000 0.000000 -44.246710 -56.483380 -20.238897 -0.000000 55.596681 0.000010 0.000000 0.000000 0.000000 
-136.924316 47.100018 4.626545 0.000000 0.000000 0.000000 17.341201 -1.889003 -56.977974 -124.167225 -7.123033 6.167554 104.150215 20.529339 -3.099666 -15.649082 -8.646153 27.015444 -26.393934 -0.000019 -0.000017 0.000000 0.000000 0.000000 17.341201 -1.889003 -56.977974 -83.375300 -33.076434 -11.652504 78.847185 9.125848 6.640796 14.228473 27.412604 11.194191 -31.111618 0.279554 -1.627150 0.000000 0.000000 0.000000 17.341201 -1.889003 -56.977974 24.899181 -12.270974 -9.216259 4.165105 -1.794366 -2.222884 0.000000 0.000000 0.000000 0.000000 0.000000 0.000000 4.182991 -1.913198 -2.791844 -1.967061 2.147585 1.007439 -6.424739 22.163117 6.526806 0.000000 0.000000 0.000000 4.182991 -1.913198 -2.791844 3.452496 -15.644386 -7.199473 0.000000 0.000000 0.000000 -68.283266 23.300973 -1.180876 0.000005 -53.459686 0.000001 0.000000 0.000000 0.000000 4.182991 -1.913198 -2.791844 -1.640241 5.009684 -1.013758 0.000000 0.000000 0.000000 -43.524943 -62.670701 -16.827882 0.000007 57.462983 -0.000018 0.000000 0.000000 0.000000 
-136.517258 50.343987 1.345337 0.000000 0.000000 0.000000 20.576242 -2.331579 -57.989385 -104.832557 -4.524474 5.819683 109.111241 21.440560 -2.818387 -31.775529 -4.562084 22.057611 -31.291774 0.000013 -0.000004 0.000000 0.000000 0.000000 20.576242 -2.331579 -57.989385 -89.024385 -30.710703 -15.626967 67.048429 7.676368 10.783205 31.503298 24.658685 15.885584 -33.743040 2.140587 -4.213120 0.000000 0.000000 0.000000 20.576242 -2.331579 -57.989385 25.564416 -13.345123 -8.563386 4.149802 -2.215113 -2.142592 0.000000 0.000000 0.000000 0.000000 0.000000 0.000000 4.179180 -2.356005 -2.734707 -2.292587 2.342066 0.700640 -8.190897 22.035186 7.810802 0.000000 0.000000 0.000000 4.179180 -2.356005 -2.734707 3.594323 -16.601950 -5.146036 0.000000 0.000000 0.000000 -71.267696 19.758790 -0.642514 0.000016 -49.128437 0.000028 0.000000 0.000000 0.000000 4.179180 -2.356005 -2.734707 -1.646130 3.405812 -0.956118 0.000000 0.000000 0.000000 -38.300853 -67.495260 -9.016785 0.000000 58.357314 -0.000013 0.000000 0.000000 0.000000 
-135.955353 52.278202 -1.790730 0.000000 0.000000 0.000000 24.495090 -2.003454 -56.311382 -88.972817 -1.271939 5.016361 109.053730 19.849225 -2.794597 -40.793318 -0.520936 20.345146 -35.025784 0.000021 -0.000006 0.000000 0.000000 0.000000 24.495090 -2.003454 -56.311382 -97.463104 -29.451820 -20.699597 62.584757 6.452589 10.677585 33.514850 24.182666 19.061099 -15.294472 1.854155 -7.243585 0.000000 0.000000 0.000000 24.495090 -2.003454 -56.311382 26.630250 -14.026005 -8.705629 4.162780 -2.501167 -2.228751 0.000000 0.000000 0.000000 0.000000 0.000000 0.000000 4.203536 -2.631810 -2.716071 -2.893535 2.572149 0.118041 -10.509750 21.720756 8.898064 0.000000 0.000000 0.000000 4.203536 -2.631810 -2.716071 3.363935 -19.010191 -3.085443 0.000000 0.000000 0.000000 -73.713888 15.127015 -1.747018 0.000002 -43.251012 0.000008 0.000000 0.000000 0.000000 4.203536 -2.631810 -2.716071 -1.431359 3.188788 -0.921008 0.000000 0.000000 0.000000 -29.714342 -70.331435 1.956470 -0.000012 57.670846 0.000019 0.000000 0.000000 0.000000 
-135.350876 52.831181 -4.779793 0.000000 0.000000 0.000000 27.592564 -1.448855 -54.087049 -77.422906 -1.497716 7.998465 110.801767 14.433530 -3.780131 -47.947494 4.061937 19.826794 -38.041756 -0.000003 0.000020 0.000000 0.000000 0.000000 27.592564 -1.448855 -54.087049 -106.484808 -27.855339 -24.763689 60.790378 6.610783 9.605006 29.997897 24.678402 19.907315 -0.345904 -0.000004 -0.000001 0.000000 0.000000 0.000000 27.592564 -1.448855 -54.087049 28.006489 -14.111896 -8.704414 4.214990 -2.640238 -2.282647 0.000000 0.000000 0.000000 0.000000 0.000000 0.000000 4.255884 -2.730636 -2.686532 -3.674719 2.725893 -0.506359 -12.640448 21.023671 9.587804 0.000000 0.000000 0.000000 4.255884 -2.730636 -2.686532 2.937837 -22.757487 -1.068877 0.000000 0.000000 0.000000 -75.933638 11.953102 -2.042988 0.000005 -37.985083 -0.000008 0.000000 0.000000 0.000000 4.255884 -2.730636 -2.686532 -0.943765 4.100645 -0.742685 0.000000 0.000000 0.000000 -22.765813 -70.138352 10.342797 -0.000003 56.330660 -0.000029 0.000000 0.000000 0.000000 
-134.637909 51.830788 -7.926422 0.000000 0.000000 0.000000 28.168646 -1.376428 -53.096057 -66.106327 -7.085650 19.027804 115.190225 0.713707 -7.725074 -56.283416 12.147474 17.326115 -41.465132 -0.006514 0.446490 0.000000 0.000000 0.000000 28.168646 -1.376428 -53.096057 -112.352562 -26.770991 -25.853569 58.793531 6.694069 8.961897 25.087548 20.911111 22.694927 1.053580 -0.000004 0.000005 0.000000 0.000000 0.000000 28.168646 -1.376428 -53.096057 29.675820 -13.762261 -8.015831 4.357965 -2.622851 -2.213267 0.000000 0.000000 0.000000 0.000000 0.000000 0.000000 4.400381 -2.640919 -2.659899 -4.534194 2.745046 -1.011831 -14.087102 19.850621 9.833417 0.000000 0.000000 0.000000 4.400381 -2.640919 -2.659899 2.448653 -27.105648 0.432235 0.000000 0.000000 0.000000 -77.847757 12.523487 0.889796 0.000012 -37.108227 0.000020 0.000000 0.000000 0.000000 4.400381 -2.640919 -2.659899 0.149070 6.480644 -0.458493 0.000000 0.000000 0.000000 -21.753372 -65.946207 10.438260 -0.000007 54.872183 -0.000009 0.000000 0.000000 0.000000 
-133.938705 50.098267 -10.974243 0.000000 0.000000 0.000000 28.032211 -0.789620 -51.516531 -48.311977 -16.475357 36.725384 113.587125 -22.489248 -18.464921 -64.639141 18.451637 16.535266 -45.434951 0.049890 -1.100365 0.000000 0.000000 0.000000 28.032211 -0.789620 -51.516531 -116.509503 -25.294482 -25.975986 56.742029 6.396987 8.151079 20.722142 15.366616 26.010381 1.931268 -0.000003 -0.000002 0.000000 0.000000 0.000000 28.032211 -0.789620 -51.516531 31.700189 -13.202564 -7.089569 4.649660 -2.511074 -2.232791 0.000000 0.000000 0.000000 0.000000 0.000000 0.000000 4.697149 -2.444164 -2.773507 -5.464609 2.690212 -1.485534 -15.229527 18.323198 9.850696 0.000000 0.000000 0.000000 4.697149 -2.444164 -2.773507 1.746339 -31.434006 0.989433 0.000000 0.000000 0.000000 -79.022038 12.346588 3.785829 0.000003 -36.009741 -0.000000 0.000000 0.000000 0.000000 4.697149 -2.444164 -2.773507 1.715737 9.875869 -0.337951 0.000000 0.000000 0.000000 -23.824106 -59.015560 6.215983 -0.000004 53.357984 0.000018 0.000000 0.000000 0.000000 
